<svg xmlns="http://www.w3.org/2000/svg" version="1.1" xmlns:xlink="http://www.w3.org/1999/xlink" xmlns:svgjs="http://svgjs.com/svgjs" width="1440" height="560" preserveAspectRatio="none" viewBox="0 0 1440 560"><g mask="url(&quot;#SvgjsMask1000&quot;)" fill="none"><rect width="1440" height="560" x="0" y="0" fill="#0e2a47"></rect><path d="M 0,393 C 57.6,366.4 172.8,267.4 288,260 C 403.2,252.6 460.8,395.2 576,356 C 691.2,316.8 748.8,54.2 864,64 C 979.2,73.8 1036.8,364.4 1152,405 C 1267.2,445.6 1382.4,294.6 1440,267L1440 560L0 560z" fill="#184a7e"></path><path d="M 0,41 C 96,127.2 288,427.8 480,472 C 672,516.2 768,252 960,262 C 1152,272 1344,470 1440,522L1440 560L0 560z" fill="#2264ab"></path></g><defs><mask id="SvgjsMask1000"><rect width="1440" height="560" fill="#ffffff"></rect></mask></defs></svg>